<svg width="100" height="45" viewBox="0 0 100 45" fill="none" xmlns="http://www.w3.org/2000/svg">
<path d="M34 0.0162057C33.541 1.63668 33.0821 3.25715 32.6231 4.92623C32.2347 4.92623 31.8993 4.92623 31.5639 4.92623C25.0851 4.92623 18.5888 4.94244 12.1101 4.91002C11.4039 4.91002 11.0685 5.07207 10.9097 5.73646C10.5919 7.06527 10.1682 8.37781 9.7622 9.78763C15.1287 9.78763 20.4071 9.78763 25.8266 9.78763C25.3499 11.4243 24.9263 12.9476 24.432 14.4708C24.379 14.6167 23.9201 14.7139 23.6553 14.7139C19.2596 14.7139 14.8816 14.7139 10.486 14.7139C8.297 14.7139 8.297 14.7139 7.71447 16.5936C7.432 17.5173 7.14953 18.4247 6.88473 19.3484C6.86707 19.3971 6.9024 19.4456 6.9024 19.5591C13.9637 19.5591 21.0249 19.5591 28.2451 19.5591C27.7508 21.2606 27.2918 22.8486 26.8151 24.4853C17.8297 24.4853 8.91487 24.4853 0 24.4853C0 24.3881 0 24.2747 0 24.1774C0.105919 23.9505 0.229491 23.7237 0.300104 23.4806C1.9595 17.8414 3.6189 12.2021 5.2783 6.5629C5.91381 4.37527 6.53167 2.18764 7.14953 0C16.0997 0.0162047 25.0499 0.0162057 34 0.0162057Z" fill="white"/>
<path d="M100 24.4682C95.57 24.4682 91.158 24.4682 86.658 24.4682C87.1146 22.8974 87.5193 21.4076 88.0113 19.934C88.064 19.7559 88.5213 19.594 88.7846 19.5778C90.244 19.5454 91.7026 19.5616 93.25 19.5616C92.7226 15.4971 92.2126 11.5459 91.668 7.38417C91.404 7.72425 91.228 7.93476 91.07 8.16148C87.326 13.3757 83.5813 18.59 79.8726 23.8366C79.5386 24.3062 79.2046 24.5006 78.5893 24.4844C76.902 24.4358 75.214 24.4682 73.3333 24.4682C73.562 24.1281 73.7373 23.8852 73.9133 23.6423C79.468 16.0314 85.0233 8.42056 90.578 0.793476C90.754 0.550573 90.894 0.259094 91.0346 0C92.8453 0 94.6386 0 96.4493 0C96.484 0.14574 96.5546 0.291481 96.572 0.453415C97.486 6.88215 98.4006 13.3271 99.332 19.7559C99.5253 21.1323 99.7713 22.4926 100 23.8528C100 24.0471 100 24.2576 100 24.4682Z" fill="white"/>
<path d="M70.6666 0C70.2646 1.34381 69.846 2.67144 69.4966 4.03144C69.322 4.67907 69.06 4.93811 68.2733 4.92193C65.3042 4.87335 62.3348 4.92193 59.3653 4.88955C58.7889 4.88955 58.5444 5.05145 58.3872 5.56954C56.6579 11.5762 54.8937 17.5667 53.1644 23.5572C52.9723 24.2373 52.7103 24.5287 51.8894 24.4801C50.492 24.3991 49.0946 24.4639 47.5749 24.4639C49.4788 17.9391 51.3653 11.4953 53.2692 4.93811C49.7234 4.93811 46.2649 4.93811 42.6666 4.93811C43.1557 3.22192 43.6098 1.60287 44.0815 0C52.9548 0 61.8108 0 70.6666 0Z" fill="white"/>
<path fill-rule="evenodd" clip-rule="evenodd" d="M97.3334 33.0882H3.33337V32.4265H97.3334V33.0882Z" fill="white"/>
<path d="M21.7097 39.1429V39.6858H20.1145V44.9013H19.5952V39.6858H18V39.1429H21.7097Z" fill="white"/>
<path d="M26.3473 44.9013L25.1305 42.5979H23.6762V44.9013H23.1569V39.1429H25.2343C25.6647 39.1429 26.0307 39.3129 26.3324 39.6529C26.6391 39.9874 26.7924 40.3933 26.7924 40.8704C26.7924 41.2598 26.6861 41.608 26.4734 41.9151C26.2656 42.2168 25.9985 42.4196 25.6721 42.5239L26.9408 44.9013H26.3473ZM23.6762 39.6858V42.0549H25.2343C25.5212 42.0549 25.7661 41.9398 25.9689 41.7094C26.1717 41.4737 26.2731 41.1939 26.2731 40.8704C26.2731 40.5413 26.1717 40.2616 25.9689 40.0313C25.7661 39.8009 25.5212 39.6858 25.2343 39.6858H23.6762Z" fill="white"/>
<path d="M31.6037 44.4406C31.2476 44.8135 30.7827 45 30.2089 45C29.6351 45 29.1701 44.8135 28.814 44.4406C28.4579 44.0677 28.2798 43.5686 28.2798 42.9434V39.1429H28.7991V42.9434C28.7991 43.4041 28.9228 43.7688 29.1701 44.0375C29.4175 44.3063 29.7637 44.4406 30.2089 44.4406C30.654 44.4406 31.0003 44.3063 31.2476 44.0375C31.4949 43.7688 31.6186 43.4041 31.6186 42.9434V39.1429H32.1379V42.9434C32.1379 43.5686 31.9599 44.0677 31.6037 44.4406Z" fill="white"/>
<path d="M36.383 45C35.5966 45 34.9461 44.7121 34.4317 44.1363C33.9172 43.5604 33.66 42.8557 33.66 42.0221C33.66 41.1884 33.9172 40.4837 34.4317 39.9079C34.9461 39.3321 35.5966 39.0441 36.383 39.0441C36.8628 39.0441 37.303 39.173 37.7037 39.4308C38.1044 39.6831 38.4135 40.0258 38.6311 40.459L38.1711 40.7552C38.0079 40.4042 37.7655 40.1245 37.444 39.9161C37.1225 39.7077 36.7688 39.6035 36.383 39.6035C35.735 39.6035 35.2058 39.8366 34.7952 40.3027C34.3847 40.769 34.1794 41.342 34.1794 42.0221C34.1794 42.7021 34.3847 43.2752 34.7952 43.7414C35.2058 44.2075 35.735 44.4406 36.383 44.4406C36.7688 44.4406 37.1225 44.3364 37.444 44.128C37.7655 43.9196 38.0079 43.64 38.1711 43.289L38.6311 43.5768C38.4184 44.0101 38.1093 44.3556 37.7037 44.6133C37.303 44.8711 36.8628 45 36.383 45Z" fill="white"/>
<path d="M43.8257 44.9013H43.1431L40.7095 42.1125V44.9013H40.1902V39.1429H40.7095V41.7753L43.0689 39.1429H43.7515L41.2586 41.9398L43.8257 44.9013Z" fill="white"/>
<path d="M45.7183 44.3584H48.0925V44.9013H45.1989V39.1429H45.7183V44.3584Z" fill="white"/>
<path d="M53.4674 44.1363C52.9481 44.7121 52.3124 45 51.5606 45C50.8088 45 50.1732 44.7121 49.6538 44.1363C49.1344 43.5549 48.8748 42.8502 48.8748 42.0221C48.8748 41.1939 49.1344 40.4919 49.6538 39.9161C50.1732 39.3348 50.8088 39.0441 51.5606 39.0441C52.3124 39.0441 52.9481 39.3348 53.4674 39.9161C53.9868 40.4919 54.2465 41.1939 54.2465 42.0221C54.2465 42.8502 53.9868 43.5549 53.4674 44.1363ZM50.0174 43.7414C50.4328 44.2075 50.9473 44.4406 51.5606 44.4406C52.174 44.4406 52.6884 44.2075 53.1039 43.7414C53.5194 43.2698 53.7271 42.6966 53.7271 42.0221C53.7271 41.3475 53.5194 40.7772 53.1039 40.311C52.6884 39.8394 52.174 39.6035 51.5606 39.6035C50.9473 39.6035 50.4328 39.8394 50.0174 40.311C49.6019 40.7772 49.3941 41.3475 49.3941 42.0221C49.3941 42.6966 49.6019 43.2698 50.0174 43.7414Z" fill="white"/>
<path d="M60.8031 42.1619V42.458C60.8031 43.171 60.5731 43.7743 60.1131 44.2678C59.6531 44.756 59.0373 45 58.2657 45C57.4792 45 56.8287 44.7121 56.3143 44.1363C55.7999 43.5604 55.5427 42.8557 55.5427 42.0221C55.5427 41.1884 55.7999 40.4837 56.3143 39.9079C56.8287 39.3321 57.4792 39.0441 58.2657 39.0441C58.7455 39.0441 59.1857 39.173 59.5863 39.4308C59.987 39.6886 60.2961 40.0313 60.5138 40.459L60.0538 40.7552C59.8905 40.4042 59.6482 40.1245 59.3267 39.9161C59.0051 39.7077 58.6515 39.6035 58.2657 39.6035C57.6177 39.6035 57.0885 39.8366 56.6779 40.3027C56.2673 40.769 56.0621 41.342 56.0621 42.0221C56.0621 42.7021 56.2673 43.2752 56.6779 43.7414C57.0885 44.2075 57.6177 44.4406 58.2657 44.4406C58.8493 44.4406 59.3168 44.2788 59.6679 43.9553C60.0191 43.6262 60.2195 43.2094 60.2689 42.7049H58.2063V42.1619H60.8031Z" fill="white"/>
<path d="M62.3988 39.1429H62.9182V44.9013H62.3988V39.1429Z" fill="white"/>
<path d="M66.3735 45C65.8986 45 65.4905 44.8766 65.1493 44.6298C64.8129 44.3776 64.5779 44.032 64.4444 43.5933L64.8895 43.3054C64.9835 43.6619 65.1567 43.9416 65.4089 44.1445C65.6612 44.3419 65.9852 44.4406 66.3809 44.4406C66.7667 44.4406 67.066 44.3474 67.2787 44.1609C67.496 43.969 67.6053 43.7167 67.6053 43.4041C67.6053 43.1025 67.506 42.8749 67.308 42.7213C67.1107 42.5678 66.784 42.4087 66.3289 42.2442C65.7898 42.0468 65.4337 41.8877 65.2605 41.767C64.8648 41.5038 64.667 41.1227 64.667 40.6236C64.667 40.1355 64.8203 39.7516 65.127 39.4719C65.4337 39.1867 65.8121 39.0441 66.2621 39.0441C66.668 39.0441 67.0187 39.1621 67.316 39.3978C67.6127 39.6282 67.8327 39.9243 67.976 40.2863L67.538 40.5578C67.3007 39.9216 66.8753 39.6035 66.2621 39.6035C65.9407 39.6035 65.681 39.6913 65.4831 39.8668C65.2853 40.0423 65.1863 40.2863 65.1863 40.5989C65.1863 40.8841 65.2754 41.098 65.4535 41.2406C65.6315 41.3831 65.9258 41.5285 66.3363 41.6766C66.5243 41.7478 66.6579 41.8 66.7373 41.8329C66.8213 41.8603 66.94 41.9096 67.0933 41.9809C67.2513 42.0468 67.368 42.1071 67.442 42.1619C67.516 42.2113 67.6053 42.2825 67.7087 42.3758C67.818 42.4635 67.8947 42.5541 67.9387 42.6473C67.9887 42.735 68.0307 42.8447 68.0653 42.9763C68.1047 43.1025 68.1247 43.2396 68.1247 43.3876C68.1247 43.8757 67.964 44.2678 67.642 44.564C67.3207 44.8547 66.898 45 66.3735 45Z" fill="white"/>
<path d="M72.7973 39.1429V39.6858H71.202V44.9013H70.6827V39.6858H69.0873V39.1429H72.7973Z" fill="white"/>
<path d="M74.244 39.1429H74.7634V44.9013H74.244V39.1429Z" fill="white"/>
<path d="M79.0853 45C78.2987 45 77.648 44.7121 77.134 44.1363C76.6193 43.5604 76.362 42.8557 76.362 42.0221C76.362 41.1884 76.6193 40.4837 77.134 39.9079C77.648 39.3321 78.2987 39.0441 79.0853 39.0441C79.5653 39.0441 80.0053 39.173 80.406 39.4308C80.8067 39.6831 81.116 40.0258 81.3333 40.459L80.8733 40.7552C80.71 40.4042 80.468 40.1245 80.146 39.9161C79.8247 39.7077 79.4713 39.6035 79.0853 39.6035C78.4373 39.6035 77.908 39.8366 77.4973 40.3027C77.0867 40.769 76.8813 41.342 76.8813 42.0221C76.8813 42.7021 77.0867 43.2752 77.4973 43.7414C77.908 44.2075 78.4373 44.4406 79.0853 44.4406C79.4713 44.4406 79.8247 44.3364 80.146 44.128C80.468 43.9196 80.71 43.64 80.8733 43.289L81.3333 43.5768C81.1207 44.0101 80.8113 44.3556 80.406 44.6133C80.0053 44.8711 79.5653 45 79.0853 45Z" fill="white"/>
</svg>
